<?xml version="1.0" encoding="UTF-8" standalone="no"?>
<!DOCTYPE svg PUBLIC "-//W3C//DTD SVG 1.1//EN" "http://www.w3.org/Graphics/SVG/1.1/DTD/svg11.dtd">
<svg width="100%" height="100%" viewBox="0 0 1080 1080" version="1.1" xmlns="http://www.w3.org/2000/svg" xmlns:xlink="http://www.w3.org/1999/xlink" xml:space="preserve" xmlns:serif="http://www.serif.com/" style="fill-rule:evenodd;clip-rule:evenodd;stroke-linejoin:round;stroke-miterlimit:2;">
    <g transform="matrix(1.183,0,0,1.183,-250.961,-96.3241)">
        <circle cx="668.604" cy="537.889" r="456.465" style="fill:white;"/>
    </g>
    <g transform="matrix(1,0,0,1,0.343863,-64.7685)">
        <g>
            <g transform="matrix(1,0,0,1,294.798,540)">
                <g transform="matrix(311.41,0,0,311.41,0,0)">
                    <path d="M0.313,-0.157C0.31,-0.127 0.309,-0.101 0.309,-0.081C0.31,-0.024 0.326,0.001 0.346,0.01C0.355,0.014 0.361,0.011 0.361,0.001C0.363,-0.052 0.369,-0.107 0.376,-0.159C0.393,-0.158 0.407,-0.156 0.419,-0.153C0.428,-0.15 0.432,-0.153 0.43,-0.162C0.426,-0.183 0.415,-0.203 0.385,-0.213C0.404,-0.323 0.432,-0.425 0.458,-0.504C0.467,-0.531 0.468,-0.553 0.458,-0.577C0.448,-0.602 0.445,-0.604 0.435,-0.618C0.425,-0.632 0.415,-0.632 0.399,-0.619C0.293,-0.532 0.154,-0.334 0.076,-0.198C0.06,-0.199 0.045,-0.201 0.031,-0.203C0.016,-0.205 0.014,-0.201 0.019,-0.188C0.022,-0.181 0.03,-0.166 0.052,-0.154C0.04,-0.132 0.031,-0.112 0.025,-0.097C0.004,-0.041 0.008,-0.011 0.02,0.005C0.025,0.012 0.034,0.012 0.038,0.003C0.058,-0.041 0.084,-0.09 0.114,-0.141C0.161,-0.14 0.242,-0.152 0.313,-0.157ZM0.152,-0.201C0.228,-0.32 0.319,-0.441 0.395,-0.526C0.364,-0.448 0.336,-0.322 0.321,-0.218C0.274,-0.217 0.213,-0.206 0.152,-0.201Z" style="fill-rule:nonzero;"/>
                </g>
            </g>
            <g transform="matrix(1,0,0,1,435.555,540)">
                <g transform="matrix(311.41,0,0,311.41,0,0)">
                    <path d="M0.269,-0.435C0.225,-0.302 0.192,-0.164 0.183,-0.107C0.173,-0.045 0.188,-0.01 0.221,0.014C0.229,0.02 0.234,0.017 0.239,0.007C0.311,-0.127 0.427,-0.28 0.541,-0.418C0.476,-0.293 0.412,-0.153 0.397,-0.094C0.38,-0.028 0.392,0.002 0.408,0.015C0.416,0.022 0.42,0.022 0.424,0.012C0.474,-0.132 0.574,-0.334 0.644,-0.464C0.671,-0.514 0.681,-0.569 0.641,-0.61C0.629,-0.622 0.621,-0.621 0.612,-0.607C0.502,-0.436 0.356,-0.287 0.247,-0.109C0.285,-0.249 0.321,-0.366 0.353,-0.462C0.379,-0.541 0.368,-0.576 0.329,-0.61C0.316,-0.621 0.306,-0.617 0.297,-0.604C0.189,-0.457 0.027,-0.19 -0.01,-0.095C-0.033,-0.035 -0.022,-0.001 -0.008,0.014C-0.001,0.022 0.005,0.022 0.009,0.012C0.068,-0.122 0.18,-0.301 0.269,-0.435Z" style="fill-rule:nonzero;"/>
                </g>
                <g transform="matrix(311.41,0,0,311.41,178.438,0)">
                    <path d="M0.412,-0.192C0.438,-0.195 0.463,-0.196 0.482,-0.194C0.495,-0.192 0.497,-0.199 0.492,-0.21C0.479,-0.24 0.451,-0.262 0.401,-0.261C0.34,-0.26 0.264,-0.235 0.186,-0.234C0.174,-0.234 0.171,-0.228 0.176,-0.218C0.191,-0.186 0.222,-0.165 0.272,-0.17C0.296,-0.172 0.328,-0.178 0.36,-0.184C0.299,-0.063 0.182,0.012 0.127,-0.039C0.087,-0.076 0.084,-0.228 0.177,-0.37C0.272,-0.515 0.435,-0.601 0.467,-0.568C0.489,-0.546 0.452,-0.49 0.439,-0.44C0.426,-0.39 0.442,-0.361 0.465,-0.345C0.476,-0.335 0.483,-0.342 0.486,-0.35C0.497,-0.379 0.513,-0.419 0.525,-0.446C0.539,-0.478 0.541,-0.505 0.532,-0.533C0.524,-0.559 0.508,-0.584 0.48,-0.604C0.446,-0.629 0.401,-0.628 0.345,-0.61C0.232,-0.573 0.03,-0.383 0.032,-0.168C0.033,-0.086 0.063,-0.041 0.099,-0.014C0.154,0.028 0.217,0.02 0.266,0.006C0.316,-0.008 0.438,-0.098 0.412,-0.192Z" style="fill-rule:nonzero;"/>
                </g>
            </g>
        </g>
    </g>
    <g transform="matrix(1,0,0,1,-11.9747,-59.9509)">
        <g>
            <g transform="matrix(1,0,0,1,158.802,749.701)">
                <g transform="matrix(287.445,0,0,287.445,0,0)">
                    <path d="M0.066,-0.229C0.04,-0.223 0.011,-0.195 0,-0.152C-0.023,-0.066 0.02,0.003 0.095,0.016C0.176,0.03 0.259,0.006 0.336,-0.122C0.391,-0.213 0.488,-0.412 0.521,-0.49C0.546,-0.549 0.541,-0.593 0.528,-0.615C0.521,-0.627 0.512,-0.628 0.504,-0.616C0.472,-0.567 0.386,-0.396 0.332,-0.285C0.265,-0.146 0.192,0.006 0.102,-0.015C0.071,-0.022 0.032,-0.067 0.081,-0.209C0.087,-0.226 0.08,-0.232 0.066,-0.229Z" style="fill-rule:nonzero;"/>
                </g>
            </g>
            <g transform="matrix(1,0,0,1,282.978,749.701)">
                <g>
                    <g transform="matrix(287.445,0,0,287.445,0,0)">
                        <path d="M0.092,-0.171C0.162,-0.114 0.229,-0.14 0.278,-0.2C0.32,-0.251 0.328,-0.312 0.31,-0.336C0.294,-0.358 0.276,-0.373 0.251,-0.388C0.201,-0.417 0.099,-0.365 0.034,-0.236C-0.031,-0.107 0.013,0.018 0.14,0.016C0.217,0.015 0.294,-0.031 0.336,-0.092C0.354,-0.118 0.357,-0.146 0.353,-0.154C0.349,-0.163 0.341,-0.163 0.336,-0.155C0.293,-0.089 0.22,-0.009 0.137,-0.013C0.084,-0.016 0.06,-0.079 0.092,-0.171ZM0.101,-0.193C0.103,-0.198 0.106,-0.204 0.109,-0.21C0.156,-0.305 0.239,-0.365 0.26,-0.348C0.274,-0.337 0.252,-0.285 0.22,-0.243C0.191,-0.205 0.15,-0.162 0.101,-0.193Z" style="fill-rule:nonzero;"/>
                    </g>
                    <g transform="matrix(1,0,0,1,89.108,0)">
                        <g transform="matrix(287.445,0,0,287.445,0,0)">
                            <path d="M0.403,-0.174C0.349,-0.08 0.289,-0.014 0.254,-0.015C0.225,-0.016 0.222,-0.05 0.249,-0.107C0.274,-0.16 0.324,-0.236 0.346,-0.281C0.37,-0.331 0.362,-0.375 0.348,-0.393C0.339,-0.402 0.333,-0.4 0.323,-0.387C0.29,-0.344 0.261,-0.275 0.197,-0.173C0.143,-0.086 0.106,-0.019 0.066,-0.018C0.043,-0.017 0.042,-0.052 0.062,-0.101C0.082,-0.149 0.108,-0.196 0.144,-0.253C0.181,-0.312 0.186,-0.355 0.162,-0.388C0.156,-0.397 0.146,-0.398 0.138,-0.387C0.071,-0.296 0.022,-0.198 -0.001,-0.132C-0.027,-0.058 -0.016,0.007 0.046,0.011C0.094,0.014 0.136,-0.026 0.168,-0.067C0.165,-0.024 0.189,0.015 0.232,0.016C0.299,0.018 0.37,-0.059 0.438,-0.173C0.5,-0.278 0.517,-0.323 0.525,-0.363C0.529,-0.384 0.523,-0.399 0.51,-0.397C0.489,-0.393 0.42,-0.327 0.403,-0.174Z" style="fill-rule:nonzero;"/>
                        </g>
                        <g transform="matrix(287.445,0,0,287.445,140.848,0)">
                            <path d="M0.092,-0.171C0.162,-0.114 0.229,-0.14 0.278,-0.2C0.32,-0.251 0.328,-0.312 0.31,-0.336C0.294,-0.358 0.276,-0.373 0.251,-0.388C0.201,-0.417 0.099,-0.365 0.034,-0.236C-0.031,-0.107 0.013,0.018 0.14,0.016C0.217,0.015 0.294,-0.031 0.336,-0.092C0.354,-0.118 0.357,-0.146 0.353,-0.154C0.349,-0.163 0.341,-0.163 0.336,-0.155C0.293,-0.089 0.22,-0.009 0.137,-0.013C0.084,-0.016 0.06,-0.079 0.092,-0.171ZM0.101,-0.193C0.103,-0.198 0.106,-0.204 0.109,-0.21C0.156,-0.305 0.239,-0.365 0.26,-0.348C0.274,-0.337 0.252,-0.285 0.22,-0.243C0.191,-0.205 0.15,-0.162 0.101,-0.193Z" style="fill-rule:nonzero;"/>
                        </g>
                        <g transform="matrix(287.445,0,0,287.445,232.83,0)">
                            <path d="M0.098,-0.2C0.187,-0.258 0.299,-0.378 0.33,-0.501C0.342,-0.548 0.336,-0.585 0.307,-0.611C0.293,-0.624 0.279,-0.622 0.264,-0.606C0.162,-0.5 0.048,-0.319 0.011,-0.145C-0.012,-0.037 0.025,0.011 0.094,0.013C0.174,0.015 0.247,-0.068 0.261,-0.098C0.272,-0.122 0.276,-0.144 0.271,-0.16C0.267,-0.174 0.256,-0.173 0.249,-0.16C0.21,-0.083 0.14,-0.011 0.092,-0.015C0.047,-0.019 0.058,-0.102 0.098,-0.2ZM0.116,-0.243C0.123,-0.259 0.131,-0.275 0.14,-0.291C0.209,-0.419 0.283,-0.53 0.296,-0.522C0.309,-0.514 0.253,-0.354 0.116,-0.243Z" style="fill-rule:nonzero;"/>
                        </g>
                        <g transform="matrix(287.445,0,0,287.445,298.943,0)">
                            <path d="M0.165,-0.316C0.19,-0.379 0.198,-0.437 0.167,-0.436C0.13,-0.435 0.043,-0.317 0.1,-0.28C0.063,-0.227 -0.004,-0.133 -0.027,-0.089C-0.054,-0.038 -0.054,0.008 -0.025,0.038C-0.016,0.047 -0.01,0.042 -0.008,0.033C0.011,-0.058 0.107,-0.2 0.145,-0.27C0.175,-0.27 0.218,-0.279 0.262,-0.308C0.222,-0.262 0.164,-0.191 0.142,-0.125C0.117,-0.05 0.146,0.016 0.218,0.019C0.271,0.021 0.329,-0.021 0.352,-0.079C0.363,-0.106 0.362,-0.13 0.357,-0.141C0.353,-0.149 0.347,-0.148 0.343,-0.14C0.311,-0.068 0.263,-0.006 0.224,-0.008C0.195,-0.009 0.183,-0.048 0.199,-0.1C0.215,-0.152 0.264,-0.215 0.309,-0.266C0.338,-0.299 0.314,-0.343 0.295,-0.364C0.288,-0.372 0.28,-0.37 0.268,-0.362C0.231,-0.336 0.197,-0.32 0.165,-0.316Z" style="fill-rule:nonzero;"/>
                        </g>
                    </g>
                </g>
            </g>
            <g transform="matrix(1,0,0,1,767.322,749.701)">
                <g transform="matrix(287.445,0,0,287.445,0,0)">
                    <path d="M0.386,-0.097C0.403,-0.123 0.406,-0.146 0.404,-0.155C0.402,-0.165 0.393,-0.164 0.388,-0.157C0.348,-0.102 0.289,-0.045 0.211,-0.003C0.253,-0.1 0.314,-0.22 0.344,-0.278C0.37,-0.329 0.362,-0.372 0.348,-0.39C0.339,-0.398 0.332,-0.396 0.323,-0.383C0.288,-0.332 0.245,-0.242 0.202,-0.168C0.151,-0.081 0.101,-0.017 0.062,-0.02C0.039,-0.022 0.037,-0.057 0.057,-0.106C0.076,-0.153 0.098,-0.194 0.134,-0.252C0.171,-0.311 0.177,-0.353 0.153,-0.385C0.146,-0.395 0.136,-0.396 0.128,-0.385C0.063,-0.295 0.014,-0.196 -0.008,-0.132C-0.031,-0.066 -0.029,0.007 0.043,0.013C0.083,0.016 0.121,-0.01 0.152,-0.042C0.141,-0.018 0.131,0.007 0.121,0.03C0.022,0.069 -0.063,0.129 -0.093,0.219C-0.113,0.278 -0.093,0.313 -0.073,0.343C-0.054,0.371 -0.035,0.371 -0.016,0.364C0.067,0.332 0.138,0.171 0.194,0.037C0.277,0.003 0.347,-0.035 0.386,-0.097ZM0.104,0.072C0.042,0.219 -0.04,0.328 -0.053,0.309C-0.071,0.284 -0.026,0.147 0.104,0.072Z" style="fill-rule:nonzero;"/>
                </g>
            </g>
        </g>
    </g>
</svg>
